/* XPM */
static const char *wxpolygon[] = {
/* columns rows colors chars-per-pixel */
"48 48 225 2 ",
"   c #000000",
".  c #0C0200",
"X  c #0B0C08",
"o  c #140402",
"O  c #171506",
"+  c #000017",
"@  c #350000",
"#  c #301404",
"$  c #382C06",
"%  c #3B3409",
"&  c #27260F",
"*  c #000028",
"=  c #0B1136",
"-  c #32322B",
";  c #4B0900",
":  c #650000",
">  c #781300",
",  c #443C0A",
"<  c #473709",
"1  c #5D3A00",
"2  c #463C10",
"3  c #5E0036",
"4  c #4A410D",
"5  c #54480B",
"6  c #5B540E",
"7  c #594B13",
"8  c #5F5213",
"9  c #6C5B07",
"0  c #635512",
"q  c #6C5C13",
"w  c #645913",
"e  c #725E13",
"r  c #694800",
"t  c #6F6215",
"y  c #786816",
"u  c #7F7110",
"i  c #514D35",
"p  c #615828",
"a  c #635034",
"s  c #000147",
"d  c #000055",
"f  c #1E2369",
"g  c #283256",
"h  c #58564B",
"j  c #4F4F47",
"k  c #635E47",
"l  c #66665A",
"z  c #747365",
"x  c #980700",
"c  c #8D0000",
"v  c #B30000",
"b  c #8D2600",
"n  c #A12600",
"m  c #D80000",
"M  c #EC0000",
"N  c #F40000",
"B  c #E82600",
"V  c #FE2500",
"C  c #FD3E00",
"Z  c #894800",
"A  c #BB5700",
"S  c #876701",
"D  c #826E17",
"F  c #847317",
"G  c #8D7B15",
"H  c #8C7A1B",
"J  c #887418",
"K  c #937E1B",
"L  c #A47400",
"P  c #87782B",
"I  c #CA4800",
"U  c #FE4400",
"Y  c #D37600",
"T  c #FF6600",
"R  c #FF7900",
"E  c #FF734F",
"W  c #96821B",
"Q  c #9C841B",
"!  c #9C8A1A",
"~  c #978317",
"^  c #8C8019",
"/  c #A48B1B",
"(  c #AA941A",
")  c #A5921A",
"_  c #B2961C",
"`  c #BDA21E",
"'  c #9C8520",
"]  c #9F8E20",
"[  c #A38C22",
"{  c #AD9522",
"}  c #B59C22",
"|  c #B59A22",
" . c #AE9C33",
".. c #BCA323",
"X. c #B6A322",
"o. c #B8A334",
"O. c #FB8900",
"+. c #FF9800",
"@. c #C1A61E",
"#. c #F9B400",
"$. c #EFA300",
"%. c #FF9120",
"&. c #C3A523",
"*. c #C5AB24",
"=. c #C9AD24",
"-. c #CAAD2D",
";. c #CCB325",
":. c #D2B323",
">. c #D5BA24",
",. c #DBBB24",
"<. c #DCBD29",
"1. c #D7B627",
"2. c #CCB635",
"3. c #CEAC2B",
"4. c #E2BE25",
"5. c #E0BB28",
"6. c #FFB027",
"7. c #FFC400",
"8. c #FFD901",
"9. c #FFE300",
"0. c yellow",
"q. c #FFFB05",
"w. c #FFF91B",
"e. c #DEC22A",
"r. c #DEC927",
"t. c #E7C729",
"y. c #FAC72C",
"u. c #EDD12B",
"i. c #ECD327",
"p. c #F5D32C",
"a. c #FEDD2A",
"s. c #FBD72B",
"d. c #F5D332",
"f. c #FBDB35",
"g. c #F5CA39",
"h. c #FFE42E",
"j. c #FFEB2D",
"k. c #FFFA26",
"l. c #FFE533",
"z. c #FFEB32",
"x. c #FFF332",
"c. c #FFFF35",
"v. c #FFFF3B",
"b. c #F6FF3E",
"n. c #948956",
"m. c #998E46",
"M. c #A99A40",
"N. c #8D8868",
"B. c #B8AD6B",
"V. c #C6BC7C",
"C. c #DF8E50",
"Z. c #F4D84C",
"A. c #FDE349",
"S. c #FEFF42",
"D. c #FFFF4B",
"F. c #FAF945",
"G. c #FFFF52",
"H. c #FFFD5B",
"J. c #FBF556",
"K. c #FFE95D",
"L. c #DEC963",
"P. c #F6DB66",
"I. c #FAFD6C",
"U. c #FDFF76",
"Y. c #000084",
"T. c #000099",
"R. c #0000AF",
"E. c blue",
"W. c #001FFF",
"Q. c #0031FF",
"!. c #4E74FF",
"~. c #00ADFF",
"^. c #49ADFF",
"/. c #7BBEFF",
"(. c #2EF3FF",
"). c #79FFFF",
"_. c #979787",
"`. c #B2AD84",
"'. c #AAAA98",
"]. c #B2AF8E",
"[. c #B8B8A5",
"{. c #C2BF9C",
"}. c #C2BA88",
"|. c #FFFF82",
" X c #FFFF8C",
".X c #FFFF93",
"XX c #FFFE9C",
"oX c #FFF796",
"OX c #F8EB97",
"+X c #C7C5AA",
"@X c #D9D3A4",
"#X c #CACAB6",
"$X c #D5D4BA",
"%X c #D2CEAB",
"&X c #E2DCA9",
"*X c #E3DFB4",
"=X c #F4EBA9",
"-X c #FFFAAA",
";X c #FBF4B9",
":X c #ECE7B8",
">X c #FF91DE",
",X c #FFBCFF",
"<X c #B5C0D9",
"1X c #9BC3FF",
"2X c #93FFFF",
"3X c #ACE2FF",
"4X c #D9D9C3",
"5X c #E0DFC4",
"6X c #E3E3CC",
"7X c #EAE8C8",
"8X c #FEFCCB",
"9X c #FCF8C7",
"0X c #EBEBD3",
"qX c #E7E7D0",
"wX c #F5F3D5",
"eX c #F4F4DB",
"rX c #FCFBDD",
"tX c #FCFAD3",
"yX c #CDFFFF",
"uX c #FFFFE5",
"iX c #FFFFEB",
"pX c #FFFFF4",
"aX c #FFFFFF",
"sX c #F1FFFF",
"dX c #F3EBFF",
/* pixels */
"uXuXuXuXuXuXuXuXuXuXuXuXuXuXuXuXuXuXuXiX$X#X4X4X0XuXiXuXuXuXuXuXuXuXuXuXuXuXuXuXuXuXuXuXuXuXuXuX",
"uXuXuXuXuXuXuXuXuXuXuXuXuXuXuXuXuXuXuX0XaXaXaX- qXaX0XeXuXuXuXuXuXuXuXuXuXuXuXuXuXuXuXuXuXuXuXuX",
"uXuXuXuXuXuXuXuXuXuXuXuXuXuXuXuXuXuXrXaXiX[.[.  aXaXaXaXaX0XuXuXuXuXuXuXuXuXuXuXuXuXuXuXuXuXuXuX",
"uXuXuXrXuXeXuXuXuXuXuXuXuXuXuXuXuXuXeXaX    aX  aXaXaXiXaXaXuXuXuXuXuXuXuXuXuXuXuXuXuXuXuXuXuXuX",
"iXpX0XaXaXaX0XuXuXuXuXuXuXuXuXuXuXrX;XV.aXaXaXaX!.  g     aX6XuXuXuXuXuXuXuXuXuXuXuXuXuXuXuXuXuX",
"#XaXaXaXaXaXaX6XuXuXuXuXuXuXuXuX-XpXaXaX(.E.W.T.Q.aXaXaXE.aX:X*XuXuXuXuXuXuXuXuXuXuXuXuXuXuXuXuX",
"#X'.        iXaX6XuXuXuXuXuXrXoXaXaXaX7.v #.0.c C       [.aXaXaX}.uXuXuXuXuXuXuXuXiXuXuXuXuXuXuX",
"$X  l aXaXaXaXaXaXuXuXuXuXrX-XaXaXV v @ 8.r 0.    0.0.0.7.    aXsXV.uXuXuXuXuXuXuXuXuXuXuXuXuXuX",
"$XaX  aX_.      aXeXuXuXuXoXaX,XU 9.E 3 a   & c.H.l.2.F.oX|.x   aXaX`.uXuXuXuXuXuXuXuXuXuXuXuXuX",
"$XiXaX  aXaXaXaX0XuXuXuX-XaXdX+.c.U.v.v.%.a.6.t.*.4.x.v.z.p.XX$.  aXaX$XuXuXuXuXuXuXuXuXuXuXuXuX",
"0X  aX$X  aXiXuXuXuXuXrXaXaXV 0.|.S.F.D.D.D.S.S.S.v.v.h.s.p.e.XX    aX$XrXuXuXuXuXuXuXuXuXuXuXuX",
"iX[.  aX    aX#XuXuXuX;XaXaXT |.D.S.S.F.b.F.S.v.S.c.x.h.t.t.:.l.    aXaX7XuXuXuXuXuXuXuXuXuXuXuX",
"uXaX  X aX  aXaX$XuXuX=XaXb +..Xb.F.b.v.v.v.v.c.c.x.h.y.t.;.&.2     aXaX*XuXuXuXuXuXuXuXuXuXiXuX",
"uXaXaX  _.aX  aXaX4XpX8XaXf m U.S.S.v.c.c.v.c.h.a.p.t.=.{ { ~       aXaX&XuXuXuXuXuXuXuXuXuXuXuX",
"uXeXaXaX  iXaX  aXaXaXaXaX|.  C.y.c.v.c.v.x.x.x.s.>.t.:.` H     A.  aXaX&XiXuXuXuXuXuXuXuXuXuXuX",
"uXuX6XaX#X  aX  4X      * > 8.m.7 < w y ^ ' F ! t q 7 X       ,.B.  q.aX&XuXuXuXuXuXuXuXuXuXuXuX",
"uXuXuXaXaX4Xj aX  z aXaXaX0.I K.t.&.H 5 & <   X               5 k   aXaX@XuXuXuXuXuXuXuXuXuXuXuX",
"uXuXaXaXaXaX  '.aX  _.  ~.. 8.A.p.t.,.>.| &.~ ' y J 0 6 y     5 k   A aX*XuXuXuXuXuXuXuXuXuXuXuX",
"uXpXaX      aX  4XaX  aXaX; Y A.p.t.1.>.} =.) { J G 0 t 7     , a   b aX*XuXuXuXuXuXuXuXuXuXuXuX",
"uXuXuXaXaXaXaXaX  aXz   aX  $.A.t.4.<.>...} ) { J H 0 y 4     , k   > aX7XuXuXuXuXuXuXuXuXuXuXuX",
"uXuXuX0X0X6XqXaXh   aX  yXO.#.Z.u.4.t.e.X.} ( ' J F e t 5     4 p     aXaXrXuXuXuXuXuXuXuXuXuXuX",
"uXuXuXuXuXuXeXaXaX-   aXE.B 0.d.u.t.=.:.=.| ( ' H u e t ,     , i     aXaXrXuXuXuXuXuXuXuXuXuXuX",
"uXuXuXuXuXuXuXeXaXaX  3XsXC k.d.u.4.1.@.=.| ) ' Q u y 0 4     % p     aXaXwXuXuXuXuXuXuXuXuXuXuX",
"uXuXuXuXuXuXuXuX0XaXaXY.).C w.g.u.,.<.*.*.} ( Q W u y 5 q     % 7     aXaXwXuXuXuXuXuXuXuXuXuXuX",
"uXiXuXuXuXuXuXuXuX6XaX^.Q.B Z.u.u.4.e.;.&.} ( ' W y e 6 q     , 4 S   aXaX7XuXuXuXuXuXuXuXuXuXuX",
"uXuXuXuXuXuXuXuXuXuX.XaX. R m.{ *.>.<.:.} &.) [ W F y w 0     q _ U.  aXaXm.uXuXuXuXuXuXuXuXuXuX",
"uXuXuXuXuXuXuXuXrXXXaXsXO.8.g.( ! J D ! H K u y q 6 < % O     6 ..2.;   aXaXN.rXuXuXuXuXuXuXuXuX",
"uXuXuXuXuXuXiX9XpXaXE.M 0.H.c.s.y.} ! W y q 7 5 2 & O O   O       X n.    aXaX`.wXiXuXuXuXuXuXuX",
"uXuXuXuXuXuX8XaXaXT 0.0.I.c.c.c.x.h.p.,.;.` ' G y 0 y 6 0 5 ,   .     s     aXaX%XwXuXuXuXuXuXuX",
"uXuXuXuXuXrX8XaXT T G.I.b.c.c.v.c.x.x.j.a.e.5.t.:.} Q [ F D t w 5 O     s     aXpX].uXuXuXuXuXuX",
"uXuXuXuXuXoXaX>XR -XD.c.c.v.v.c.c.x.x.j.s.a.p.,.;.:.X.) ! J D t 0 6 w 7 $ i G.  aXaX[.rXuXuXuXuX",
"uXuXuXuX9XaXaXV q.D.c.v.F.c.v.v.c.c.x.z.a.f.r.t.1...&.} ( Q K H J F y w q x. X    aXpX6XqX6XuXuX",
"uXuXuXuX-XaXC 9..Xc.v.v.v.c.v.c.v.c.c.c.x.h.h.a.f.p.*.,.*...{ { Q G / :.S.D.l.N.  aXaXaXaXaXaXuX",
"uXuXuXrXaXaXM 0.H.v.S.c.k.v.v.c.c.c.c.x.x.x.x.i.e.a.t.>.1.;.:.1.f.c.S.S.v.&.! =     aXh       #X",
"uXuXuX9XaXaXM w.D.S.c.v.v.v.c.c.c.c.c.v.v.c.c.x.x.v.c.c.c.v.v.S.S.D.c.5.H G K       R.<X_.  aX0X",
"uXeXwX:XaX/.c U.b.b.v.v.S.c.v.c.v.c.v.c.c.c.v.v.v.v.v.b.v.v.v.z.,.| Q D G [         aXaXaXaXaXuX",
"uXaXaXaXaXaX  J.D.c.S.v.v.c.c.c.v.v.c.c.c.x.j.x.l.a.d.i.e.;.&.} { ) Q W Q     * 1   aXaX%XaXeXuX",
"uXl   l   ~.. : 6.U.D.v.v.c.v.c.c.c.c.x.l.z.j.s.p.p.t.,.,.*...} ( / H K     d S   aXaX@XuXuXuXuX",
"6X'.aX  aXaX2XI.  : O.P.J.F.v.c.c.x.z.j.z.a.f.a.f.e.e.;.=...X.' Q J P = +       aXaX*XrXuXuXuXuX",
"eXaXaXaXuXaXaXaXaXn o   @ Z -.L.L.Z.A.A.g.f.5.:...>.-.o. . .m.n.k X           aXaX%XwXiXuXuXuXuX",
"uXiXeXuXuXuXwXOXaXaXaXaX:             # o 1 5 9 r $ .                   aXaXaXaX}.rXuXuXuXuXuXuX",
"uXuXuXuXuXuXuXuX9X=XaXaXaXaXaXaXL         .                     aXaXaXaXaXpX{.6XuXuXuXuXuXuXuXuX",
"uXuXuXuXuXuXuXuXuXuX9X=X9XaXaXaXaXaXaXaXaXaXaXaXaXaXaXaXaXaXaXaXaXaXaX+X+X7XuXuXuXuXuXuXuXuXuXuX",
"uXuXuXuXuXuXuXuXuXuXuXuXuXtX;X=X=XwXpXaXaXY.1Xd aXaXaXdXaX  aXiX{.aXaXaXeXuXuXuXuXuXuXuXuXuXuXuX",
"uXuXuXuXuXuXuXuXuXuXuXuXuXuXuXuXuXuXrXtXaXaXaXtXaXaXaX- #XaX  aXaXaXaXaXaX6XuXuXuXuXuXuXuXuXuXuX",
"uXuXuXuXuXuXuXuXuXuXuXuXuXuXuXuXuXuXuXiXaXpXaX        qXl iX+XaX        aXaX6XuXuXuXuXuXuXuXiXuX",
"uXuXuXuXuXuXuXuXuXuXuXuXuXuXuXuXuXuXuXaXuX  _.  aXaXaXaXaXj iXpXeXX aXaX- aXaXuXuXuXuXuXuXuXuXuX",
"uXuXuXuXuXuXuXuXuXuXuXuXuXuXuXuXuXuXuXuXuXuXiX0XrXuXuXuXuXeXqXqX6X0X6X6X6XuXuXuXuXuXuXuXuXuXuXuX"
};
